<svg xmlns="http://www.w3.org/2000/svg" width="135" height="119" viewBox="0 0 135 119" xmlns:xlink="http://www.w3.org/1999/xlink">
  <g fill="none" fill-rule="evenodd">
    <g transform="translate(81.144 30.825)">
      <path fill="#5CB782" d="M.203 9.427c5.322 5.312 13.798 5.534 19.394.68L9.56.088.202 9.426z"/>
    </g>
    <g transform="translate(76.835)">
      <path fill="#5CB782" d="M24.663 20.137L4.51.022c-5.56 5.555-5.563 14.56.002 20.115l20.15 20.115c5.563-5.556 5.566-14.56 0-20.115z"/>
    </g>
    <g transform="translate(59.6 52.33)">
      <path fill="#5CB782" d="M.156 9.477c5.322 5.312 13.797 5.527 19.395.68L9.51.138.157 9.476z"/>
    </g>
    <g transform="translate(55.293 21.506)">
      <path fill="#5CB782" d="M4.464.065C-1.1 5.62-1.1 14.63 4.464 20.187l20.15 20.115c5.564-5.555 5.564-14.56 0-20.115L4.465.065z"/>
    </g>
    <g transform="translate(0 81.006)">
      <path fill="#181616" d="M.043.366h25.34V4.84H4.97V15.92H22.92v4.35H4.97V36.87H.044V.366z"/>
    </g>
    <g transform="translate(26.57 91.042)">
      <path fill="#181616" d="M5.297.222v17.664c0 1.362.215 2.473.647 3.333.797 1.59 2.28 2.38 4.455 2.38 3.12 0 5.243-1.39 6.372-4.173.614-1.49.92-3.534.92-6.136V.223h4.482v26.61H17.94l.052-3.928c-.58 1.01-1.304 1.864-2.166 2.56-1.71 1.397-3.783 2.092-6.223 2.092-3.8 0-6.39-1.268-7.766-3.806-.747-1.355-1.12-3.17-1.12-5.44V.22h4.58z"/>
    </g>
    <g transform="translate(51.702 83.157)">
      <path fill="#181616" d="M4.142.674h4.53v7.434h4.257v3.65H8.67v17.368c0 .932.316 1.55.946 1.864.348.187.93.273 1.742.273.216 0 .448-.008.697-.022.25 0 .54-.013.872-.05v3.528c-.516.15-1.05.258-1.607.322-.556.072-1.158.1-1.805.1-2.09 0-3.51-.53-4.257-1.598-.745-1.075-1.118-2.46-1.118-4.165v-17.62H.532v-3.65h3.61V.675z"/>
    </g>
    <g transform="translate(67.5 91.042)">
      <path fill="#181616" id="o" d="M5.256.222v17.664c0 1.362.216 2.473.647 3.333.796 1.59 2.28 2.38 4.455 2.38 3.12 0 5.245-1.39 6.373-4.173.615-1.49.923-3.534.923-6.136V.223h4.48v26.61H17.9l.05-3.928c-.58 1.01-1.3 1.864-2.166 2.56-1.707 1.397-3.782 2.092-6.223 2.092-3.798 0-6.387-1.268-7.764-3.806-.748-1.355-1.12-3.17-1.12-5.44V.22h4.58z"/>
    </g>
    <g transform="translate(95.505 90.325)">
      <path fill="#181616" d="M.273.94H4.53v4.594c.35-.896 1.202-1.986 2.563-3.27C8.455.983 10.023.338 11.8.338c.08 0 .223.014.423.03.198.013.538.05 1.018.1v4.716c-.263-.05-.51-.08-.732-.1-.224-.015-.47-.022-.734-.022-2.257 0-3.992.725-5.203 2.173-1.21 1.455-1.816 3.12-1.816 5.01V27.55H.274V.94z"/>
    </g>
    <g transform="translate(109.867 90.325)">
      <path fill="#181616" d="M19.888 12.122c-.182-1.942-.605-3.49-1.27-4.652-1.227-2.15-3.277-3.226-6.148-3.226-2.057 0-3.783.738-5.178 2.222-1.394 1.484-2.13 3.37-2.214 5.656h14.81zm2.416-7.01c.896 1.34 1.493 2.903 1.792 4.695.265 1.226.398 3.183.398 5.864H4.954c.082 2.703.72 4.868 1.916 6.503 1.193 1.627 3.045 2.444 5.55 2.444 2.34 0 4.207-.767 5.602-2.308.796-.897 1.36-1.937 1.692-3.112h4.406c-.117.982-.502 2.07-1.157 3.27-.657 1.203-1.39 2.185-2.204 2.945-1.36 1.326-3.046 2.222-5.054 2.68-1.08.266-2.3.402-3.66.402-3.318 0-6.13-1.204-8.438-3.613-2.306-2.415-3.46-5.792-3.46-10.13 0-4.27 1.163-7.74 3.486-10.415 2.323-2.66 5.36-4 9.11-4 1.892 0 3.727.444 5.502 1.333 1.776.89 3.128 2.036 4.058 3.44z"/>
    </g>
  </g>
</svg>
